<svg xmlns="http://www.w3.org/2000/svg">
	<symbol id="back" viewBox="0 0 512.00533 512" fill="currentColor">
		<path d="m160.003906 319.988281c-2.730468 0-5.460937-1.046875-7.550781-3.117187l-149.332031-149.332032c-4.160156-4.160156-4.160156-10.921874 0-15.082031l149.332031-149.335937c4.160156-4.160156 10.921875-4.160156 15.082031 0s4.160156 10.925781 0 15.085937l-141.78125 141.78125 141.78125 141.78125c4.160156 4.160157 4.160156 10.921875 0 15.082031-2.070312 2.089844-4.800781 3.136719-7.53125 3.136719zm0 0"/>
		<path d="m501.339844 511.988281c-5.890625 0-10.667969-4.78125-10.667969-10.667969 0-182.335937-148.332031-330.667968-330.667969-330.667968h-149.332031c-5.886719 0-10.66796875-4.777344-10.66796875-10.664063 0-5.890625 4.78124975-10.667969 10.66796875-10.667969h149.332031c194.09375 0 352 157.910157 352 352 0 5.886719-4.777344 10.667969-10.664062 10.667969zm0 0"/>
	</symbol>
</svg>